<svg width="150" height="42" viewBox="0 0 150 42" fill="none" xmlns="http://www.w3.org/2000/svg">
<path d="M6.8199 13.7808H24.124C24.0706 13.8968 24.04 13.9823 23.9943 14.0601C19.482 21.8466 23.3562 31.4405 31.9121 34.3882C38.4576 36.6428 45.7038 34.147 49.3642 28.4242C49.4864 28.2349 49.5978 28.0395 49.7687 27.7572H40.6282V20.9308H58.665C58.6131 21.7566 58.6009 22.5671 58.5063 23.367C57.3935 32.706 50.1366 40.2239 40.6374 41.671C31.3351 43.0891 23.7622 39.9277 18.3524 32.1168C16.0886 28.8471 15.0583 25.1209 15.0537 21.1353C15.0537 20.6468 14.8949 20.5262 14.4385 20.5522C12.5976 20.6591 10.9032 20.2179 9.43933 19.07C7.85943 17.832 6.93439 16.2201 6.80006 14.1914C6.79242 14.0662 6.81227 13.938 6.8199 13.7808Z" fill="#FFD778"/>
<path d="M57.372 14.0005C54.8319 14.0005 52.3499 14.0051 49.8693 13.9868C49.7213 13.9868 49.5228 13.8296 49.4328 13.6906C47.2041 10.2698 44.0962 8.09307 40.1228 7.20771C39.0176 6.96195 37.8606 6.85663 36.7279 6.85205C26.8791 6.82152 17.0303 6.8322 7.18151 6.82457C4.16978 6.82304 1.55646 5.14545 0.497084 2.48633C0.242163 1.84674 0.168892 1.13388 0.0192975 0.45307C-0.0478673 0.149302 0.0559337 -0.0231897 0.39939 0.0180251C0.480293 0.0271839 0.562721 0.0180251 0.643625 0.0180251C12.7134 0.0134457 24.7833 -0.0201367 36.8531 0.0180251C43.4337 0.0378692 48.984 2.50465 53.4245 7.38326C55.0883 9.21197 56.3385 11.3078 57.2468 13.6067C57.288 13.7105 57.3155 13.8189 57.372 13.999V14.0005Z" fill="#BC7F23"/>
<path d="M77.9285 24.1191C76.9772 24.1191 76.1159 24.1191 75.2546 24.1191C73.2895 24.1163 72.281 22.9334 72.5781 20.8483C72.8425 20.8483 73.1259 20.8483 73.4067 20.8483C75.797 20.8483 78.1874 20.8756 80.5778 20.832C81.3219 20.8183 81.5917 20.9982 81.5999 21.7887C81.6408 25.7081 79.0623 28.9598 75.5136 29.385C71.6268 29.8483 68.2116 27.3735 67.2631 23.4104C66.3746 19.6927 67.781 15.8468 70.8092 14.097C73.5184 12.5325 76.2904 12.6687 78.9179 14.3314C80.6296 15.4162 81.003 17.2723 79.989 18.8014C79.6456 19.3192 79.384 19.3356 79.0487 18.7714C77.8113 16.7054 75.192 15.8577 72.9651 16.7735C70.9046 17.6212 69.768 20.0361 70.3294 22.3719C70.9482 24.9395 72.9379 26.3895 75.4563 26.0652C76.5929 25.9207 77.4569 25.362 77.9285 24.1191Z" fill="#FFD778"/>
<path d="M88.9564 16.4465C88.9972 16.253 88.9727 15.9395 89.1144 15.7488C91.1559 12.955 95.3916 12.2463 98.278 14.1951C102.887 17.3051 103.14 24.5907 98.7604 28.014C96.1275 30.0692 92.2653 29.9111 89.8722 27.5916C87.3074 25.1058 86.675 22.0558 87.5854 18.6924C87.798 17.9074 88.4576 17.2424 88.9564 16.4492V16.4465ZM92.8049 16.7954C92.0172 15.9668 91.1696 15.7815 90.4555 16.0949C91.0987 16.2802 91.96 16.531 92.8213 16.779C93.053 17.5313 93.3582 18.2699 93.4945 19.0413C93.5872 19.5701 93.2846 19.7718 92.7395 19.4638C91.6929 18.8723 90.8234 19.1667 90.5699 20.3387C90.3928 21.1591 90.3982 22.0885 90.5917 22.9062C91.1941 25.4629 94.0451 26.8448 96.2419 25.7327C98.3434 24.6697 99.311 21.7124 98.3516 19.2702C97.4303 16.9262 95.3752 16.0077 92.8077 16.7927L92.8049 16.7954Z" fill="#FFD778"/>
<path d="M121.926 22.1429C121.926 20.2513 121.909 18.3598 121.928 16.4682C121.953 14.116 122.746 13.3283 125.109 13.3582C126.24 13.3719 127.407 13.3283 128.489 13.5926C130.29 14.0315 131.667 15.1572 132.46 16.8743C133.793 19.758 133.823 22.6799 132.498 25.5636C131.536 27.6541 129.903 28.9025 127.538 28.9924C125.91 29.0551 124.278 29.036 122.648 29.0796C122.04 29.096 121.92 28.7744 121.923 28.2592C121.934 26.2205 121.928 24.1844 121.928 22.1456L121.926 22.1429ZM125.177 25.6808C126.832 25.738 128.464 25.9288 129.481 24.2525C130.549 22.4918 130.479 19.4936 129.358 18.0245C128.464 16.8552 126.908 16.4491 125.18 16.9343V25.6808H125.177Z" fill="#BC7F23"/>
<path d="M145.936 24.5578C145.309 24.7786 144.75 25.0593 144.158 25.1683C141.793 25.599 139.879 24.1271 139.757 21.6332C139.634 19.1038 139.601 16.5554 139.757 14.0287C139.838 12.7068 141.103 13.549 141.812 13.3664C142.351 13.2274 142.747 13.4154 142.747 14.135C142.747 16.2337 142.798 18.3297 142.845 20.4285C142.85 20.7147 142.856 21.0717 143.016 21.2652C143.308 21.6196 143.717 22.1075 144.079 22.1102C144.502 22.1102 144.96 21.6932 145.341 21.3797C145.614 21.1562 145.786 20.8073 146.178 20.6002C146.178 18.5042 146.203 16.4055 146.164 14.3095C146.151 13.5953 146.372 13.3173 147.108 13.3337C149.585 13.3882 149.22 13.0693 149.236 15.3888C149.253 17.9836 149.247 20.5784 149.236 23.1732C149.234 23.7837 149.223 24.4052 149.114 25.0021C148.47 28.5099 144.832 30.3497 141.577 28.8343C140.149 28.1692 139.394 26.632 139.746 25.0511C139.789 24.8522 139.939 24.5714 140.092 24.5333C140.236 24.4978 140.495 24.6913 140.626 24.8494C141.615 26.0323 142.896 26.3049 144.336 26.0487C145.205 25.8933 145.655 25.4463 145.938 24.5551L145.936 24.5578Z" fill="#BC7F23"/>
<path d="M111.042 13.4101V25.7681C112.345 25.7681 113.563 25.7953 114.779 25.7572C115.479 25.7354 115.817 25.948 115.749 26.7003C115.7 27.2508 115.719 27.8069 115.744 28.3602C115.768 28.8998 115.518 29.077 115.008 29.0743C112.879 29.0634 110.75 29.0579 108.622 29.0743C108.047 29.0797 107.859 28.8399 107.861 28.2866C107.875 24.1491 107.85 20.0088 107.878 15.8714C107.889 14.2278 109.063 13.3066 111.042 13.4074V13.4101Z" fill="#FFD778"/>
</svg>
